# xmcd CD database file
#
# Track frame offsets:
#	150
#	4740
#	18060
#	32652
#	36382
#	49941
#	63555
#	79320
#	90046
#	98723
#	114159
#	122015
#	136820
#	149180
#	156924
#	177528
#	190774
#	204468
#	211566
#	224089
#	237301
#
# Disc length: 3220 seconds
#
# Revision: 3
# Processed by: cddbd v1.5.1PL0 Copyright (c) Steve Scherf et al.
# Submitted via: CDex 1.51
#
DISCID=230c9215
DTITLE=J-zone - Pimps Don't Pay Taxes
DYEAR=2001
DGENRE=Hip-Hop
TTITLE0=Model Citizens
TTITLE1=Q&A
TTITLE2=Live from Pimp Palace East f. Huggy Bear, Al-Shid
TTITLE3=Stroke Happy
TTITLE4=The Tojan War f. Huggy Bear
TTITLE5=The Bum Bitch Ballad
TTITLE6=190 f. Al-Shid
TTITLE7=You Block, You Bleed
TTITLE8=Block Itch
TTITLE9=No Consequences f. Hugy Bear
TTITLE10=A Word From Our Sponsor
TTITLE11=Zone for President
TTITLE12=Im Fucking Up the Money f. Huggy Bear
TTITLE13=Old Maid Legal Aid
TTITLE14=Jailbait Jennifer f. Al-Shid
TTITLE15=S.H.I.D Chapter 5 f. Al-Shid
TTITLE16=Ms Platonic Part 2
TTITLE17=The J-Zone Fan Club
TTITLE18=Invisible Ink f. Huggy Bear
TTITLE19=Metrocard Millionaires f. Huggy Bear, Al-Shid
TTITLE20=Billionaire Theme
EXTD=YEAR: 2001
EXTT0=
EXTT1=
EXTT2=
EXTT3=
EXTT4=
EXTT5=
EXTT6=
EXTT7=
EXTT8=
EXTT9=
EXTT10=
EXTT11=
EXTT12=
EXTT13=
EXTT14=
EXTT15=
EXTT16=
EXTT17=
EXTT18=
EXTT19=
EXTT20=
PLAYORDER=
